<svg width="512" height="512" viewBox="0 0 512 512" fill="none" xmlns="http://www.w3.org/2000/svg">
  <defs>
    <linearGradient id="top" x1="136" y1="106" x2="390" y2="201" gradientUnits="userSpaceOnUse">
      <stop stop-color="#1876EE"/>
      <stop offset="1" stop-color="#3292FF"/>
    </linearGradient>
    <linearGradient id="left" x1="92" y1="196" x2="257" y2="402" gradientUnits="userSpaceOnUse">
      <stop stop-color="#2185F4"/>
      <stop offset="1" stop-color="#126DE4"/>
    </linearGradient>
    <linearGradient id="right" x1="263" y1="190" x2="418" y2="391" gradientUnits="userSpaceOnUse">
      <stop stop-color="#FFFFFF"/>
      <stop offset="1" stop-color="#F9FCFF"/>
    </linearGradient>
    <linearGradient id="arrow" x1="314" y1="260" x2="370" y2="398" gradientUnits="userSpaceOnUse">
      <stop stop-color="#2689F8"/>
      <stop offset="1" stop-color="#126DE4"/>
    </linearGradient>
    <filter id="shadow" x="58" y="86" width="398" height="382" filterUnits="userSpaceOnUse" color-interpolation-filters="sRGB">
      <feDropShadow dx="0" dy="16" stdDeviation="16" flood-color="#6E8EC7" flood-opacity="0.24"/>
    </filter>
    <clipPath id="leftClip">
      <path d="M86 169C86 153 96 141 111 136L258 88C266 85 275 85 284 88L416 132C431 137 440 149 440 165V281C440 308 427 331 404 344L258 428L111 344C95 335 86 319 86 300V169Z"/>
    </clipPath>
  </defs>
  <g filter="url(#shadow)">
    <path d="M86 169C86 153 96 141 111 136L258 88C266 85 275 85 284 88L416 132C431 137 440 149 440 165V198C440 215 431 229 416 237L258 318L106 237C93 230 86 217 86 202V169Z" fill="url(#top)"/>
    <path d="M86 170L258 225V428L111 344C95 335 86 319 86 300V170Z" fill="url(#left)"/>
    <path d="M258 225L440 166V300C440 318 431 335 415 344L258 428V225Z" fill="url(#right)"/>
    <path d="M86 170C86 154 96 141 111 136L258 88C266 85 275 85 284 88L416 132C431 137 440 149 440 166L258 225L86 170Z" fill="url(#top)"/>
    <path d="M96 198L258 247L431 190" stroke="#FFFFFF" stroke-width="18" stroke-linecap="round" stroke-linejoin="round"/>
    <g clip-path="url(#leftClip)">
      <path d="M83 238L224 287C238 292 252 291 265 284L297 266" stroke="#FFFFFF" stroke-width="28" stroke-linecap="round" stroke-linejoin="round"/>
      <path d="M82 318L228 369C241 374 254 373 265 366L292 349" stroke="#FFFFFF" stroke-width="28" stroke-linecap="round" stroke-linejoin="round"/>
      <path d="M82 397L221 445" stroke="#FFFFFF" stroke-width="28" stroke-linecap="round" stroke-linejoin="round"/>
    </g>
    <path d="M440 166V300C440 318 431 335 415 344L402 351C419 330 426 310 426 286V176L440 166Z" fill="#1879ED" opacity="0.95"/>
    <path d="M426 221C420 234 410 243 397 250" stroke="#FFFFFF" stroke-width="14" stroke-linecap="round"/>
    <path d="M426 279C419 293 408 302 393 310" stroke="#FFFFFF" stroke-width="14" stroke-linecap="round"/>
    <path d="M338 240C338 235 342 232 347 231L382 219C388 217 394 221 394 227V334H421C431 334 436 346 429 353L366 417C361 422 353 422 348 417L285 353C278 346 283 334 293 334H320V259C320 250 328 243 338 240Z" fill="url(#arrow)"/>
    <path d="M258 225V428" stroke="#126DE4" stroke-width="3" opacity="0.9"/>
    <path d="M258 428L415 344C431 335 440 318 440 300V166" stroke="#126DE4" stroke-width="7" stroke-linecap="round" stroke-linejoin="round" opacity="0.95"/>
  </g>
</svg>
